<svg xmlns="http://www.w3.org/2000/svg" width="512" height="512" viewBox="0 0 512 512" version="1.1"><path d="M 257.400 170.765 C 254.666 172.590, 253.742 176.189, 255.015 180.047 C 255.752 182.277, 255.962 185.165, 255.533 187.152 C 255.135 188.994, 254.626 209.103, 254.401 231.840 C 254.008 271.641, 254.065 273.283, 255.951 275.932 C 257.812 278.545, 257.825 278.804, 256.205 281.091 C 254.680 283.246, 254.518 286.663, 254.672 313.500 C 254.886 350.860, 255.180 357.306, 256.754 359.204 C 257.806 360.472, 260.761 360.657, 275.073 360.356 C 284.458 360.159, 292.933 359.571, 293.907 359.050 C 295.519 358.187, 295.735 355.351, 296.333 327.301 C 296.694 310.361, 296.706 294.700, 296.359 292.500 C 295.685 288.219, 293.533 285, 291.345 285 C 289.578 285, 289.613 283.362, 291.396 282.678 C 292.164 282.384, 293.626 279.748, 294.646 276.821 C 296.360 271.903, 296.487 267.966, 296.323 224.821 C 296.203 192.936, 295.796 177.487, 295.040 176.074 C 294.431 174.937, 292.166 173.105, 290.006 172.003 C 286.634 170.283, 284.133 170.002, 272.290 170.015 C 264.705 170.024, 258.005 170.361, 257.400 170.765 M 305.878 171.628 C 302.820 175.159, 302.440 177.523, 302.969 189.726 C 303.681 206.120, 303.640 206.078, 319.072 206.118 C 339.572 206.171, 347.957 209.631, 353.331 220.254 L 356.066 225.659 355.783 266.160 L 355.500 306.660 352.458 311.580 C 350.499 314.749, 347.117 318.083, 342.958 320.946 L 336.500 325.392 322.773 325.566 C 306.768 325.769, 303.926 326.791, 304.117 332.272 C 304.179 334.047, 303.887 340.068, 303.470 345.650 C 302.717 355.703, 302.735 355.826, 305.310 358.400 C 307.788 360.879, 308.410 361, 318.705 360.997 C 343.391 360.989, 364.282 357.184, 373 351.107 C 378.091 347.559, 386.401 338.741, 390.561 332.475 C 392.548 329.481, 395.485 322.919, 397.087 317.893 L 400 308.755 400 265.627 L 400 222.500 397.363 213.534 C 390.611 190.586, 378.809 178.943, 356.500 173.225 C 349.178 171.349, 343.772 170.810, 327.500 170.337 C 308.793 169.794, 307.395 169.877, 305.878 171.628 M 110.073 173.635 C 108.640 175.457, 108.010 177.694, 108.032 180.885 C 108.060 184.937, 108.226 185.287, 109.392 183.750 C 110.123 182.787, 111.293 182, 111.992 182 C 112.692 182, 114.792 181.055, 116.660 179.901 C 119.391 178.213, 120.345 178.041, 121.528 179.023 C 123.411 180.586, 123.422 185.053, 121.550 187.559 C 120.151 189.430, 119.987 189.437, 116.969 187.750 C 111.431 184.655, 107.920 186.044, 111.442 189.936 C 112.235 190.812, 113.303 193.393, 113.815 195.670 C 114.605 199.190, 114.458 200.098, 112.829 201.726 C 111.013 203.543, 108.037 212.502, 108.012 216.231 C 108.004 217.317, 109.025 218.178, 110.750 218.542 C 115.769 219.601, 119.979 221.892, 119.448 223.276 C 119.167 224.006, 117.489 225.030, 115.719 225.552 C 112.915 226.378, 112.429 227.032, 111.950 230.620 C 111.648 232.886, 110.523 236.036, 109.450 237.620 C 107.587 240.371, 107.506 242.380, 107.644 282.500 C 107.727 306.435, 108.200 325.558, 108.744 326.961 C 109.405 328.662, 109.264 331.091, 108.288 334.828 C 106.990 339.800, 107.041 340.777, 108.927 346.985 C 112.217 357.818, 115.845 358.996, 117.753 349.851 C 118.367 346.908, 118.786 343.423, 118.685 342.107 C 118.548 340.335, 119.374 339.220, 121.870 337.810 C 123.723 336.763, 125.298 336.040, 125.370 336.203 C 127.767 341.673, 128.707 342.510, 132.782 342.807 C 138.056 343.192, 138.399 345.365, 133.784 349.158 C 130.880 351.545, 130.651 352.106, 131.548 354.655 C 133.350 359.781, 146.480 361.709, 148.892 357.202 C 149.630 355.823, 150.191 320.424, 149.886 294.500 C 149.866 292.850, 149.988 287.171, 150.156 281.880 C 150.504 270.884, 149.668 269, 144.437 269 C 139.705 269, 139.234 267.218, 143.496 265.437 C 149.306 263.010, 150.508 259.039, 150.461 242.422 C 150.312 188.818, 149.962 176.827, 148.462 173.927 C 146.987 171.073, 146.755 171, 139.224 171.007 C 133.198 171.012, 130.840 171.450, 128.500 173 C 124.566 175.606, 119.859 175.606, 118.232 173 C 116.467 170.173, 112.556 170.477, 110.073 173.635 M 159.750 174.142 C 157.052 176.795, 157 177.075, 157 188.876 C 157 201.687, 157.950 205.522, 161.402 206.643 C 162.988 207.159, 221.105 207.465, 240.215 207.058 C 244.232 206.972, 245.179 204.145, 245.210 192.145 C 245.250 176.746, 245.148 175.585, 243.580 173.441 C 242.217 171.577, 240.585 171.499, 202.330 171.469 L 162.500 171.437 159.750 174.142 M 121.537 226.939 C 120.586 228.478, 122.179 236.131, 123.561 236.662 C 124.263 236.931, 126.031 236.371, 127.488 235.416 C 129.607 234.027, 130.012 233.163, 129.514 231.090 C 128.526 226.986, 123.217 224.222, 121.537 226.939 M 117.979 242.050 C 116.895 244.668, 116.936 245.365, 118.255 246.684 C 119.109 247.538, 120.301 247.932, 120.904 247.559 C 122.456 246.600, 122.266 241.465, 120.628 240.106 C 119.538 239.202, 118.994 239.601, 117.979 242.050 M 165.078 246.058 C 162.649 247.818, 160.806 250.080, 160.449 251.741 C 160.122 253.258, 159.157 256.159, 158.304 258.186 C 156.297 262.957, 157.163 267.545, 161.095 272.972 C 163.628 276.469, 164.553 277.078, 166.563 276.573 C 167.894 276.239, 170.466 276.585, 172.277 277.343 C 174.854 278.419, 181.665 278.672, 203.536 278.502 C 218.916 278.382, 232.400 277.927, 233.500 277.490 C 238.677 275.435, 239.022 274.430, 238.927 261.707 C 238.877 255.124, 238.593 249.103, 238.295 248.327 C 237.997 247.550, 236.121 246.088, 234.127 245.078 C 230.849 243.417, 227.547 243.235, 199.807 243.188 L 169.114 243.135 165.078 246.058 M 128.115 271.908 C 127.004 272.611, 127.141 273.005, 128.804 273.895 C 130.990 275.065, 132.666 273.887, 131.500 272 C 130.747 270.781, 129.929 270.759, 128.115 271.908 M 119 274.122 C 119 275.896, 119.247 276.040, 120.500 275 C 121.325 274.315, 122 273.360, 122 272.878 C 122 272.395, 121.325 272, 120.500 272 C 119.638 272, 119 272.902, 119 274.122 M 168.100 326.643 C 165.179 328.689, 162 334.380, 162 337.563 C 162 339.210, 160.965 341.471, 159.520 342.979 C 157.116 345.488, 157.077 345.759, 158.217 351.889 C 159.702 359.876, 162.139 362.013, 166.935 359.534 C 170.205 357.843, 170.281 357.072, 167.917 349.601 C 166.563 345.320, 166.800 341.411, 168.500 340 C 169.763 338.952, 170.239 339.327, 171.514 342.378 C 172.671 345.147, 172.824 347.298, 172.165 351.501 L 171.303 357 175.713 357 C 178.139 357, 182.345 357.726, 185.059 358.614 C 189.851 360.181, 191.666 360.131, 199 358.230 C 201.467 357.591, 203.270 357.704, 205.110 358.615 C 208.944 360.513, 240.475 361.619, 243.566 359.965 C 246.592 358.345, 247.266 354.984, 246.169 346.981 C 245.681 343.417, 245.585 337.853, 245.958 334.619 C 246.547 329.498, 246.374 328.495, 244.623 326.863 C 243.315 325.644, 241.892 325.217, 240.557 325.641 C 239.428 325.999, 236.028 326.151, 233.002 325.979 C 226.926 325.634, 223.715 325.601, 217 325.816 C 214.525 325.895, 202.945 325.808, 191.268 325.623 C 174.589 325.359, 169.620 325.578, 168.100 326.643" stroke="none" fill="#f3dfe6" fill-rule="evenodd"/><path d="M 207 1.420 C 207 2.446, 205.124 3.013, 200.250 3.461 C 189.455 4.453, 187.353 4.935, 184.694 7.026 C 183.314 8.112, 180.906 9.011, 179.342 9.024 C 174.501 9.064, 168.613 10.809, 167.311 12.589 C 166.598 13.565, 163.819 14.640, 160.785 15.115 C 157.576 15.617, 154.886 16.692, 153.936 17.851 C 153.076 18.902, 150.529 20.073, 148.275 20.453 C 146.022 20.834, 143.380 22.027, 142.405 23.105 C 141.430 24.182, 138.675 25.557, 136.283 26.159 C 133.891 26.761, 131.526 28.018, 131.026 28.951 C 130.527 29.884, 128.241 31.211, 125.946 31.898 C 123.452 32.645, 121.583 33.880, 121.298 34.967 C 121.037 35.967, 119.625 37.026, 118.161 37.320 C 115.251 37.904, 109.294 41.934, 104.959 46.250 C 103.440 47.762, 101.650 49, 100.981 49 C 99.175 49, 88.637 57.662, 79.995 66.250 C 76.812 69.412, 73.711 72, 73.104 72 C 72.497 72, 72 72.489, 72 73.086 C 72 73.683, 69.300 76.830, 66 80.079 C 62.700 83.329, 60 86.424, 60 86.958 C 60 87.493, 59.101 88.411, 58.003 88.998 C 56.905 89.586, 55.142 91.739, 54.084 93.783 C 53.027 95.828, 51.226 98.283, 50.081 99.240 C 48.937 100.197, 48 101.608, 48 102.375 C 48 103.142, 46.875 104.507, 45.500 105.408 C 44.125 106.309, 43 107.644, 43 108.375 C 43 109.105, 41.650 111.116, 40 112.843 C 38.350 114.569, 37 117.059, 37 118.376 C 37 119.793, 36.030 121.406, 34.623 122.328 C 33.315 123.184, 31.962 125.017, 31.614 126.400 C 31.267 127.783, 29.862 130.125, 28.492 131.604 C 27.121 133.082, 26 135.281, 26 136.490 C 26 137.700, 24.868 139.996, 23.484 141.594 C 22.099 143.193, 20.692 146.188, 20.356 148.250 C 20.019 150.313, 19.449 152, 19.088 152 C 17.779 152, 15.254 157.602, 14.585 161.989 C 14.208 164.458, 12.996 167.440, 11.890 168.617 C 10.564 170.028, 9.676 172.754, 9.279 176.628 C 8.926 180.072, 7.867 183.599, 6.719 185.157 C 5.380 186.974, 4.440 190.692, 3.746 196.907 C 3.018 203.428, 2.344 206, 1.365 206 C 0.230 206, 0 214.493, 0 256.500 C 0 300.722, 0.186 307, 1.500 307 C 2.376 307, 3.018 307.936, 3.044 309.250 C 3.192 316.856, 4.959 326.041, 6.768 328.614 C 7.894 330.213, 9.053 333.909, 9.370 336.905 C 9.734 340.339, 10.680 343.094, 11.964 344.462 C 13.092 345.663, 14.276 348.732, 14.642 351.408 C 15.008 354.072, 16.280 357.379, 17.505 358.851 C 18.719 360.308, 20.031 363.236, 20.421 365.359 C 20.812 367.481, 22.161 370.181, 23.419 371.359 C 24.677 372.536, 26.015 375.175, 26.393 377.221 C 26.771 379.268, 27.897 381.518, 28.896 382.221 C 29.896 382.925, 31.064 384.625, 31.493 386 C 31.923 387.375, 33.337 389.772, 34.637 391.327 C 35.937 392.881, 37 394.798, 37 395.586 C 37 396.374, 38.350 398.431, 40 400.157 C 41.650 401.884, 43 403.879, 43 404.592 C 43 405.304, 43.830 406.475, 44.843 407.193 C 45.857 407.912, 47.491 410.203, 48.474 412.285 C 49.457 414.366, 51.102 416.519, 52.130 417.070 C 53.159 417.620, 54 418.699, 54 419.467 C 54 420.235, 55.350 421.825, 57 423 C 58.650 424.175, 60 425.792, 60 426.593 C 60 427.394, 61.125 428.477, 62.500 429 C 63.875 429.523, 65 430.626, 65 431.452 C 65 432.278, 66.107 433.680, 67.461 434.566 C 68.815 435.453, 70.195 437.038, 70.528 438.087 C 70.861 439.137, 72.186 440.260, 73.472 440.582 C 74.759 440.905, 76.035 442.026, 76.309 443.073 C 76.582 444.119, 77.975 445.420, 79.403 445.963 C 80.831 446.506, 82 447.625, 82 448.450 C 82 449.274, 83.350 450.647, 85 451.500 C 86.650 452.353, 88 453.684, 88 454.458 C 88 455.232, 88.816 456.124, 89.814 456.441 C 90.811 456.757, 93.343 458.588, 95.439 460.508 C 97.536 462.429, 99.818 464, 100.511 464 C 101.203 464, 102.507 465.125, 103.408 466.500 C 104.309 467.875, 105.884 469, 106.908 469 C 107.932 469, 109.507 470.125, 110.408 471.500 C 111.309 472.875, 112.649 474, 113.386 474 C 114.122 474, 116.424 475.350, 118.500 477 C 120.576 478.650, 123.032 480, 123.957 480 C 124.882 480, 126.596 481.100, 127.765 482.444 C 128.934 483.789, 131.526 485.196, 133.526 485.571 C 135.526 485.946, 138.158 487.249, 139.375 488.466 C 140.592 489.683, 143.480 490.981, 145.794 491.351 C 148.107 491.721, 150 492.457, 150 492.986 C 150 494.420, 154.926 496.634, 159.764 497.375 C 162.109 497.734, 164.889 498.889, 165.942 499.942 C 167.017 501.017, 169.970 502.133, 172.678 502.488 C 177.452 503.115, 179.148 503.719, 184 506.525 C 185.375 507.320, 188.750 507.983, 191.500 507.999 C 197.929 508.035, 201 508.882, 201 510.617 C 201 511.778, 209.839 512, 256 512 C 304.222 512, 311 511.815, 311 510.500 C 311 509.675, 311.563 508.976, 312.250 508.946 C 320.751 508.579, 329.225 506.982, 331.645 505.289 C 333.215 504.191, 336.750 502.998, 339.500 502.638 C 342.250 502.278, 345.733 501.077, 347.241 499.969 C 348.748 498.861, 351.448 497.701, 353.241 497.392 C 358.097 496.556, 361.793 494.982, 362.359 493.508 C 362.635 492.788, 364.761 491.878, 367.084 491.486 C 369.556 491.068, 372.223 489.783, 373.518 488.386 C 374.734 487.074, 376.488 486, 377.414 486 C 379.887 486, 384.667 483.311, 385.347 481.537 C 385.672 480.692, 387.011 480, 388.323 480 C 389.635 480, 391.918 478.879, 393.396 477.508 C 394.875 476.138, 397.227 474.730, 398.622 474.380 C 400.018 474.030, 401.646 472.676, 402.240 471.372 C 402.835 470.067, 404.153 469, 405.170 469 C 406.186 469, 408.431 467.650, 410.157 466 C 411.884 464.350, 413.672 463, 414.131 463 C 415.029 463, 419.606 459.194, 424.051 454.750 C 425.564 453.237, 427.307 452, 427.923 452 C 428.539 452, 429.555 450.875, 430.182 449.500 C 430.808 448.125, 431.945 447, 432.707 447 C 433.469 447, 434.854 445.675, 435.783 444.055 C 436.713 442.435, 438.301 440.893, 439.311 440.629 C 440.322 440.365, 441.393 439.215, 441.691 438.074 C 441.989 436.933, 442.877 436, 443.663 436 C 444.450 436, 445.860 434.649, 446.797 432.997 C 447.733 431.346, 449.286 429.741, 450.248 429.431 C 451.209 429.121, 452.260 427.814, 452.582 426.528 C 452.905 425.241, 454.026 423.965, 455.073 423.691 C 456.119 423.418, 457.410 422.052, 457.940 420.658 C 458.470 419.263, 459.826 417.628, 460.952 417.026 C 462.078 416.423, 463 415.349, 463 414.639 C 463 413.929, 464.089 412.326, 465.420 411.076 C 466.750 409.825, 468.404 407.439, 469.095 405.772 C 469.785 404.105, 471.396 401.695, 472.675 400.416 C 473.954 399.137, 475 397.573, 475 396.940 C 475 396.307, 476.125 394.452, 477.500 392.817 C 478.875 391.183, 480.298 388.643, 480.662 387.173 C 481.026 385.703, 482.138 383.921, 483.133 383.213 C 484.128 382.506, 485.429 380.120, 486.024 377.911 C 486.619 375.702, 487.957 373.043, 488.997 372.003 C 490.037 370.963, 491.191 368.399, 491.561 366.306 C 491.931 364.213, 493.073 361.825, 494.099 361 C 495.150 360.155, 496.399 357.203, 496.958 354.243 C 497.504 351.351, 498.859 347.751, 499.968 346.243 C 501.077 344.734, 502.277 341.250, 502.634 338.500 C 502.991 335.750, 504.299 331.700, 505.539 329.500 C 507.047 326.827, 508.023 322.929, 508.483 317.750 C 508.954 312.445, 509.578 310, 510.460 310 C 511.170 310, 512.031 308.594, 512.375 306.875 C 513.180 302.851, 513.197 206.676, 512.393 204.582 C 512.059 203.712, 511.159 203, 510.393 203 C 509.627 203, 508.980 202.213, 508.956 201.250 C 508.772 193.924, 506.987 184.883, 505.232 182.386 C 504.116 180.799, 502.929 177.250, 502.593 174.500 C 502.258 171.750, 501.077 168.266, 499.968 166.757 C 498.859 165.249, 497.512 161.649, 496.975 158.757 C 496.435 155.851, 495.172 152.812, 494.150 151.962 C 493.134 151.116, 491.991 148.767, 491.611 146.741 C 491.231 144.716, 489.813 141.743, 488.460 140.135 C 487.107 138.527, 486 136.243, 486 135.060 C 486 133.877, 484.910 131.819, 483.578 130.487 C 482.245 129.154, 480.834 127.037, 480.441 125.782 C 480.048 124.527, 478.663 122.228, 477.363 120.673 C 476.063 119.119, 475 117.202, 475 116.414 C 475 115.626, 473.650 113.569, 472 111.843 C 470.350 110.116, 469 108.147, 469 107.467 C 469 106.787, 467.875 105.493, 466.500 104.592 C 465.125 103.691, 464 102.305, 464 101.512 C 464 100.719, 462.650 98.532, 461 96.653 C 459.350 94.774, 458 92.743, 458 92.141 C 458 91.539, 456.834 90.282, 455.409 89.348 C 453.984 88.414, 452.420 86.604, 451.934 85.325 C 451.447 84.046, 450.352 83, 449.500 83 C 448.648 83, 447.506 81.831, 446.963 80.403 C 446.420 78.975, 445.188 77.600, 444.225 77.349 C 443.262 77.097, 441.713 75.565, 440.783 73.945 C 439.854 72.325, 438.450 71, 437.663 71 C 436.877 71, 435.999 70.105, 435.713 69.012 C 435.427 67.919, 434.063 66.594, 432.682 66.069 C 431.301 65.544, 429.877 64.189, 429.518 63.057 C 429.159 61.926, 428.461 61, 427.966 61 C 427.471 61, 425.508 59.538, 423.604 57.750 C 418.602 53.056, 414.025 49.675, 410.808 48.298 C 409.264 47.637, 408 46.615, 408 46.027 C 408 45.438, 406.762 44.406, 405.250 43.733 C 403.738 43.060, 401.707 41.529, 400.738 40.331 C 399.769 39.134, 397.539 37.838, 395.784 37.453 C 394.029 37.067, 391.751 35.682, 390.724 34.376 C 389.696 33.069, 388.057 32, 387.083 32 C 386.108 32, 384.019 30.889, 382.439 29.532 C 380.859 28.174, 378.352 26.797, 376.868 26.471 C 375.384 26.145, 372.950 24.830, 371.459 23.550 C 369.969 22.269, 367.166 20.964, 365.231 20.650 C 363.296 20.336, 360.681 19.109, 359.419 17.924 C 357.995 16.586, 355.299 15.568, 352.312 15.240 C 349.404 14.920, 346.428 13.818, 344.792 12.455 C 343.145 11.083, 340.009 9.928, 336.792 9.507 C 333.881 9.127, 329.250 7.768, 326.500 6.488 C 323.400 5.044, 318.555 3.907, 313.750 3.495 C 308.049 3.005, 306 2.455, 306 1.415 C 306 0.214, 298.507 0, 256.500 0 C 214.399 0, 207 0.212, 207 1.420 M 257.400 170.765 C 254.666 172.590, 253.742 176.189, 255.015 180.047 C 255.752 182.277, 255.962 185.165, 255.533 187.152 C 255.135 188.994, 254.626 209.103, 254.401 231.840 C 254.008 271.641, 254.065 273.283, 255.951 275.932 C 257.812 278.545, 257.825 278.804, 256.205 281.091 C 254.680 283.246, 254.518 286.663, 254.672 313.500 C 254.886 350.860, 255.180 357.306, 256.754 359.204 C 257.806 360.472, 260.761 360.657, 275.073 360.356 C 284.458 360.159, 292.933 359.571, 293.907 359.050 C 295.519 358.187, 295.735 355.351, 296.333 327.301 C 296.694 310.361, 296.706 294.700, 296.359 292.500 C 295.685 288.219, 293.533 285, 291.345 285 C 289.578 285, 289.613 283.362, 291.396 282.678 C 292.164 282.384, 293.626 279.748, 294.646 276.821 C 296.360 271.903, 296.487 267.966, 296.323 224.821 C 296.203 192.936, 295.796 177.487, 295.040 176.074 C 294.431 174.937, 292.166 173.105, 290.006 172.003 C 286.634 170.283, 284.133 170.002, 272.290 170.015 C 264.705 170.024, 258.005 170.361, 257.400 170.765 M 305.878 171.628 C 302.820 175.159, 302.440 177.523, 302.969 189.726 C 303.681 206.120, 303.640 206.078, 319.072 206.118 C 339.572 206.171, 347.957 209.631, 353.331 220.254 L 356.066 225.659 355.783 266.160 L 355.500 306.660 352.458 311.580 C 350.499 314.749, 347.117 318.083, 342.958 320.946 L 336.500 325.392 322.773 325.566 C 306.768 325.769, 303.926 326.791, 304.117 332.272 C 304.179 334.047, 303.887 340.068, 303.470 345.650 C 302.717 355.703, 302.735 355.826, 305.310 358.400 C 307.788 360.879, 308.410 361, 318.705 360.997 C 343.391 360.989, 364.282 357.184, 373 351.107 C 378.091 347.559, 386.401 338.741, 390.561 332.475 C 392.548 329.481, 395.485 322.919, 397.087 317.893 L 400 308.755 400 265.627 L 400 222.500 397.363 213.534 C 390.611 190.586, 378.809 178.943, 356.500 173.225 C 349.178 171.349, 343.772 170.810, 327.500 170.337 C 308.793 169.794, 307.395 169.877, 305.878 171.628 M 110.073 173.635 C 108.640 175.457, 108.010 177.694, 108.032 180.885 C 108.060 184.937, 108.226 185.287, 109.392 183.750 C 110.123 182.787, 111.293 182, 111.992 182 C 112.692 182, 114.792 181.055, 116.660 179.901 C 119.391 178.213, 120.345 178.041, 121.528 179.023 C 123.411 180.586, 123.422 185.053, 121.550 187.559 C 120.151 189.430, 119.987 189.437, 116.969 187.750 C 111.431 184.655, 107.920 186.044, 111.442 189.936 C 112.235 190.812, 113.303 193.393, 113.815 195.670 C 114.605 199.190, 114.458 200.098, 112.829 201.726 C 111.013 203.543, 108.037 212.502, 108.012 216.231 C 108.004 217.317, 109.025 218.178, 110.750 218.542 C 115.769 219.601, 119.979 221.892, 119.448 223.276 C 119.167 224.006, 117.489 225.030, 115.719 225.552 C 112.915 226.378, 112.429 227.032, 111.950 230.620 C 111.648 232.886, 110.523 236.036, 109.450 237.620 C 107.587 240.371, 107.506 242.380, 107.644 282.500 C 107.727 306.435, 108.200 325.558, 108.744 326.961 C 109.405 328.662, 109.264 331.091, 108.288 334.828 C 106.990 339.800, 107.041 340.777, 108.927 346.985 C 112.217 357.818, 115.845 358.996, 117.753 349.851 C 118.367 346.908, 118.786 343.423, 118.685 342.107 C 118.548 340.335, 119.374 339.220, 121.870 337.810 C 123.723 336.763, 125.298 336.040, 125.370 336.203 C 127.767 341.673, 128.707 342.510, 132.782 342.807 C 138.056 343.192, 138.399 345.365, 133.784 349.158 C 130.880 351.545, 130.651 352.106, 131.548 354.655 C 133.350 359.781, 146.480 361.709, 148.892 357.202 C 149.630 355.823, 150.191 320.424, 149.886 294.500 C 149.866 292.850, 149.988 287.171, 150.156 281.880 C 150.504 270.884, 149.668 269, 144.437 269 C 139.705 269, 139.234 267.218, 143.496 265.437 C 149.306 263.010, 150.508 259.039, 150.461 242.422 C 150.312 188.818, 149.962 176.827, 148.462 173.927 C 146.987 171.073, 146.755 171, 139.224 171.007 C 133.198 171.012, 130.840 171.450, 128.500 173 C 124.566 175.606, 119.859 175.606, 118.232 173 C 116.467 170.173, 112.556 170.477, 110.073 173.635 M 159.750 174.142 C 157.052 176.795, 157 177.075, 157 188.876 C 157 201.687, 157.950 205.522, 161.402 206.643 C 162.988 207.159, 221.105 207.465, 240.215 207.058 C 244.232 206.972, 245.179 204.145, 245.210 192.145 C 245.250 176.746, 245.148 175.585, 243.580 173.441 C 242.217 171.577, 240.585 171.499, 202.330 171.469 L 162.500 171.437 159.750 174.142 M 0.464 256.500 C 0.464 284.550, 0.592 296.169, 0.749 282.320 C 0.906 268.471, 0.906 245.521, 0.749 231.320 C 0.593 217.119, 0.465 228.450, 0.464 256.500 M 121.537 226.939 C 120.586 228.478, 122.179 236.131, 123.561 236.662 C 124.263 236.931, 126.031 236.371, 127.488 235.416 C 129.607 234.027, 130.012 233.163, 129.514 231.090 C 128.526 226.986, 123.217 224.222, 121.537 226.939 M 117.979 242.050 C 116.895 244.668, 116.936 245.365, 118.255 246.684 C 119.109 247.538, 120.301 247.932, 120.904 247.559 C 122.456 246.600, 122.266 241.465, 120.628 240.106 C 119.538 239.202, 118.994 239.601, 117.979 242.050 M 165.078 246.058 C 162.649 247.818, 160.806 250.080, 160.449 251.741 C 160.122 253.258, 159.157 256.159, 158.304 258.186 C 156.297 262.957, 157.163 267.545, 161.095 272.972 C 163.628 276.469, 164.553 277.078, 166.563 276.573 C 167.894 276.239, 170.466 276.585, 172.277 277.343 C 174.854 278.419, 181.665 278.672, 203.536 278.502 C 218.916 278.382, 232.400 277.927, 233.500 277.490 C 238.677 275.435, 239.022 274.430, 238.927 261.707 C 238.877 255.124, 238.593 249.103, 238.295 248.327 C 237.997 247.550, 236.121 246.088, 234.127 245.078 C 230.849 243.417, 227.547 243.235, 199.807 243.188 L 169.114 243.135 165.078 246.058 M 128.115 271.908 C 127.004 272.611, 127.141 273.005, 128.804 273.895 C 130.990 275.065, 132.666 273.887, 131.500 272 C 130.747 270.781, 129.929 270.759, 128.115 271.908 M 119 274.122 C 119 275.896, 119.247 276.040, 120.500 275 C 121.325 274.315, 122 273.360, 122 272.878 C 122 272.395, 121.325 272, 120.500 272 C 119.638 272, 119 272.902, 119 274.122 M 168.100 326.643 C 165.179 328.689, 162 334.380, 162 337.563 C 162 339.210, 160.965 341.471, 159.520 342.979 C 157.116 345.488, 157.077 345.759, 158.217 351.889 C 159.702 359.876, 162.139 362.013, 166.935 359.534 C 170.205 357.843, 170.281 357.072, 167.917 349.601 C 166.563 345.320, 166.800 341.411, 168.500 340 C 169.763 338.952, 170.239 339.327, 171.514 342.378 C 172.671 345.147, 172.824 347.298, 172.165 351.501 L 171.303 357 175.713 357 C 178.139 357, 182.345 357.726, 185.059 358.614 C 189.851 360.181, 191.666 360.131, 199 358.230 C 201.467 357.591, 203.270 357.704, 205.110 358.615 C 208.944 360.513, 240.475 361.619, 243.566 359.965 C 246.592 358.345, 247.266 354.984, 246.169 346.981 C 245.681 343.417, 245.585 337.853, 245.958 334.619 C 246.547 329.498, 246.374 328.495, 244.623 326.863 C 243.315 325.644, 241.892 325.217, 240.557 325.641 C 239.428 325.999, 236.028 326.151, 233.002 325.979 C 226.926 325.634, 223.715 325.601, 217 325.816 C 214.525 325.895, 202.945 325.808, 191.268 325.623 C 174.589 325.359, 169.620 325.578, 168.100 326.643" stroke="none" fill="#ae1047" fill-rule="evenodd"/></svg>